<svg xmlns="http://www.w3.org/2000/svg" viewBox="0 0 1264.11 821.13"><defs><style>.cls-1{fill:#442161;}.cls-2{fill:#fff;}.cls-3,.cls-4{fill:none;stroke-linecap:round;stroke-linejoin:round;stroke-width:92.63px;}.cls-3{stroke:#fff;}.cls-4{stroke:#fdfefe;}</style></defs><g id="Layer_2" data-name="Layer 2"><g id="Layer_1-2" data-name="Layer 1"><rect class="cls-1" width="1264.11" height="821.13" rx="200.15"/><path class="cls-2" d="M543.12,700.28c-25.58,25.59-69.24,15-80.24-19.43a165.21,165.21,0,0,1-7.49-50.41V395.55H255.51v183.1q0,21.89-13.86,35.38T205.9,627.52q-21.89,0-35.38-13.49T157,578.65V155.54q0-21.89,13.49-35.38t35.38-13.49q21.9,0,35.75,13.49t13.86,35.38V297.06H455.39V155.54q0-21.89,13.5-35.38t35.38-13.49q21.88,0,35.74,13.49t13.86,35.38v474.9c0,6.61.46,13.22.48,19.3.06,17,4.16,35.16-8.56,47.88Z"/><path class="cls-2" d="M1107.08,527.87q0,21.9-13.49,35.39t-35.39,13.49q-21.17,0-35.37-13.86t-14.23-35v-19q0-24.07-17.14-41.58t-41.22-17.51q-24.81,0-42,17.14t-17.14,42v19q0,21.9-13.86,35.39t-35.74,13.49q-21.88,0-35.39-13.49t-13.49-35.39v-19q0-70.76,53.25-118.18-53.25-46.68-53.25-117.45v-19q0-21.88,13.49-35.38t35.39-13.49q49.59,0,49.6,48.87v19q0,24.81,17.14,41.58t42,16.78q24.07,0,41.22-17.14a56.22,56.22,0,0,0,17.14-41.22v-19q0-21.88,13.86-35.38t35.74-13.49q21.9,0,35.39,13.49t13.49,35.38v19q0,70.77-53.25,117.45,53.24,47.43,53.25,118.18Z"/><polyline class="cls-3" points="795.88 530.52 634.88 530.52 554.38 391.1 634.88 251.67 795.88 251.67"/><line class="cls-4" x1="554.39" y1="391.09" x2="730.63" y2="391.09"/><rect class="cls-2" x="636.96" y="205.44" width="207.11" height="100.79"/><rect class="cls-2" x="632.65" y="475.96" width="207.11" height="100.79"/></g></g></svg>