<svg id="Untitled-1_Image" data-name="Untitled-1 Image" xmlns="http://www.w3.org/2000/svg" viewBox="0 0 537.06 345.08"><defs><style>.cls-1{fill:#440e62;}.cls-2{fill:#fefefe;}</style></defs><path class="cls-1" d="M294.94.14H469.81c.19.3.5.18.76.2a69.38,69.38,0,0,1,34.56,11.82Q530.72,29.5,536.29,60c.35,1.94.62,3.89.92,5.84V280.23a5.41,5.41,0,0,0-.21.79,69.6,69.6,0,0,1-4.12,17.3A72,72,0,0,1,465.4,345q-19.78,0-39.58,0l-158,.12-78.91.06-116,.05A78.33,78.33,0,0,1,58,343.8C31.4,338.7,9.19,317.64,2.52,291.24A87.83,87.83,0,0,1,.24,269.51q0-34.35,0-68.7,0-64.32-.05-128.64a71.92,71.92,0,0,1,2.4-18.35C10.75,22.72,39.12.51,71.3.42,127.42.27,183.55.33,239.67.3q27,0,54-.09C294.07.21,294.51.16,294.94.14ZM204.8,169.37V79.09c0-.88,0-1.76-.06-2.63-.5-6.55-3.53-11.51-9.32-14.68a20.45,20.45,0,0,0-11.63-2.11A17.35,17.35,0,0,0,171,66.14a18.79,18.79,0,0,0-3.93,12.29v52.88c0,.69.12,1.23-1,1.23q-37.17-.06-74.35,0c-.77,0-1-.18-1-1,0-3,0-6.07,0-9.11,0-14.83,0-29.66,0-44.48,0-5.82-2.08-10.77-6.74-14.46-4.15-3.28-9-4.14-14.11-3.86a17.43,17.43,0,0,0-15.7,11.43,23.85,23.85,0,0,0-1.16,8.26V238.91c0,1.12,0,2.24.11,3.35.72,7,4.14,12.13,10.69,15a20.47,20.47,0,0,0,9.76,1.37,17.88,17.88,0,0,0,13.66-7.15c2.72-3.61,3.52-7.78,3.52-12.19q0-33.87,0-67.74c0-1.08.25-1.37,1.36-1.37q36.75,0,73.51,0c1.19,0,1.5.24,1.5,1.47q-.06,43.94,0,87.88a65.18,65.18,0,0,0,1.07,12.4c3.31,17.18,12.8,30.14,27.37,39.47,10.84,6.94,22.92,9.26,35.62,8.59a17.44,17.44,0,0,0,16.16-12.82,23.86,23.86,0,0,0,.62-8.08,17.84,17.84,0,0,0-12.47-15.72,30.16,30.16,0,0,0-8.77-.95,20.45,20.45,0,0,1-10.93-3.07c-7.39-4.66-11-11.4-11-20.15Q204.83,214.28,204.8,169.37Zm158.72,50.44h0c0,7.43-.28,14.88.07,22.29.34,7.19,4.1,12.37,10.82,15.21a21.53,21.53,0,0,0,9.41,1.32A17.77,17.77,0,0,0,400.35,246a24.1,24.1,0,0,0,.84-6.87q0-18.53,0-37a23.81,23.81,0,0,1,.62-5.58,22.41,22.41,0,0,1,44.08,3.63c.09,1,.13,2.07.13,3.11,0,12.75,0,25.5.08,38.24a15.88,15.88,0,0,0,3.43,9.66c4.62,6,10.87,8.09,18.21,7.34a17.25,17.25,0,0,0,11.35-5.58,17.83,17.83,0,0,0,4.61-12.39c0-13,0-26,0-39a63.19,63.19,0,0,0-.54-8.13,57.33,57.33,0,0,0-15.88-32.83c-.77-.8-.67-1.17,0-1.91,10.25-10.77,15.95-23.58,16.28-38.45.31-14.38.22-28.77,0-43.16-.1-7.29-3.58-12.8-10.36-15.93a20.92,20.92,0,0,0-9.84-1.55A18.38,18.38,0,0,0,446.67,73a21.42,21.42,0,0,0-.66,5.81c0,12.79-.15,25.58,0,38.36a22.53,22.53,0,0,1-26.79,22.41,22,22,0,0,1-18.06-21.31c-.05-13.43,0-26.86,0-40.29a18.4,18.4,0,0,0-3.7-11.4c-6.65-8.81-20.62-8.57-27.24-3.22-4.77,3.86-6.75,8.94-6.75,14.94v39.92a59.19,59.19,0,0,0,.63,8.72,57.22,57.22,0,0,0,15.77,31.86c.75.78.68,1.13,0,1.86a57.07,57.07,0,0,0-16.32,39C363.38,206.38,363.52,213.1,363.52,219.81Zm-97-80.34a.9.9,0,0,1,0-.3c.09-.3.2-.6.31-.9,6-16.56,17.22-28.33,33.12-35.7A61.63,61.63,0,0,1,326,97.24a17.69,17.69,0,0,0,12.34-4.75c4.34-4,5.92-9.1,5.83-14.89a17.79,17.79,0,0,0-17.71-18,100.19,100.19,0,0,0-30.65,4c-23.14,6.88-40.94,21-54.4,40.74-10.54,15.46-15.43,32.78-16,51.41a102.75,102.75,0,0,0,6.11,39.62C238.28,213.48,249.8,228,265,239.72c18.2,14,39,20,61.78,19.6a17,17,0,0,0,8.65-2.51c6.18-3.77,8.75-9.43,8.69-16.52-.09-10.72-7.71-18.45-18.42-18.57a58.29,58.29,0,0,1-11.81-1C290.14,215.52,274,201.58,266,178.55c-.49-1.41-.46-1.42,1.1-1.42h57.09a26.1,26.1,0,0,0,5.37-.39c16.2-3.39,17.57-21.89,11-30.22-3.83-4.88-8.95-7-15-7.05h-59Z" transform="translate(-0.15 -0.14)"/><path class="cls-2" d="M204.8,169.37q0,44.91,0,89.8c0,8.75,3.59,15.49,11,20.15a20.45,20.45,0,0,0,10.93,3.07,30.16,30.16,0,0,1,8.77.95,17.84,17.84,0,0,1,12.47,15.72,23.86,23.86,0,0,1-.62,8.08A17.44,17.44,0,0,1,231.16,320c-12.7.67-24.78-1.65-35.62-8.59C181,302,171.48,289.08,168.17,271.9a65.18,65.18,0,0,1-1.07-12.4q0-43.93,0-87.88c0-1.23-.31-1.48-1.5-1.47q-36.75,0-73.51,0c-1.11,0-1.36.29-1.36,1.37q.06,33.87,0,67.74c0,4.41-.8,8.58-3.52,12.19a17.88,17.88,0,0,1-13.66,7.15,20.47,20.47,0,0,1-9.76-1.37c-6.55-2.84-10-8-10.69-15-.11-1.11-.11-2.23-.11-3.35V79.33a23.85,23.85,0,0,1,1.16-8.26,17.43,17.43,0,0,1,15.7-11.43c5.14-.28,10,.58,14.11,3.86,4.66,3.69,6.72,8.64,6.74,14.46,0,14.82,0,29.65,0,44.48,0,3,0,6.07,0,9.11,0,.8.23,1,1,1q37.17,0,74.35,0c1.1,0,1-.54,1-1.23V78.43A18.79,18.79,0,0,1,171,66.14a17.35,17.35,0,0,1,12.75-6.47,20.45,20.45,0,0,1,11.63,2.11c5.79,3.17,8.82,8.13,9.32,14.68.07.87.06,1.75.06,2.63Z" transform="translate(-0.15 -0.14)"/><path class="cls-2" d="M363.52,220.17c0-6.71-.14-13.43,0-20.14A57.07,57.07,0,0,1,379.87,161c.69-.73.76-1.08,0-1.86a57.22,57.22,0,0,1-15.77-31.86,59.19,59.19,0,0,1-.63-8.72V78.62c0-6,2-11.08,6.75-14.94,6.62-5.34,20.59-5.59,27.24,3.22a18.41,18.41,0,0,1,3.7,11.41c0,13.42,0,26.85,0,40.28a22,22,0,0,0,18.06,21.31,22.53,22.53,0,0,0,26.79-22.41c-.19-12.78,0-25.57,0-38.36a21.42,21.42,0,0,1,.66-5.81A18.38,18.38,0,0,1,463.43,60a20.92,20.92,0,0,1,9.84,1.55c6.78,3.13,10.26,8.64,10.36,15.93.2,14.39.29,28.78,0,43.16-.33,14.87-6,27.68-16.28,38.45-.71.74-.81,1.11,0,1.91a57.33,57.33,0,0,1,15.88,32.83,63.19,63.19,0,0,1,.54,8.13c0,13,0,26,0,39a17.83,17.83,0,0,1-4.61,12.39,17.25,17.25,0,0,1-11.35,5.58c-7.34.75-13.59-1.33-18.21-7.34a15.85,15.85,0,0,1-3.43-9.66c-.09-12.74-.06-25.49-.08-38.24,0-1,0-2.08-.13-3.11a22.41,22.41,0,0,0-44.08-3.63,23.81,23.81,0,0,0-.62,5.58q0,18.53,0,37.05a24.1,24.1,0,0,1-.84,6.87A17.77,17.77,0,0,1,383.86,259a21.53,21.53,0,0,1-9.41-1.32c-6.72-2.84-10.48-8-10.82-15.21-.35-7.41-.07-14.86-.07-22.29Z" transform="translate(-0.15 -0.14)"/><path class="cls-2" d="M266.49,139.1h59c6.1,0,11.22,2.17,15,7,6.55,8.33,5.18,26.83-11,30.22a26.1,26.1,0,0,1-5.37.39H267.05c-1.56,0-1.59,0-1.1,1.41,8.08,23,24.19,37,47.95,42.16a58.29,58.29,0,0,0,11.81,1c10.71.12,18.33,7.85,18.42,18.57.06,7.09-2.51,12.75-8.69,16.52a17,17,0,0,1-8.65,2.51c-22.79.41-43.58-5.62-61.78-19.6-15.21-11.68-26.73-26.24-33.52-44.32a102.75,102.75,0,0,1-6.11-39.62c.56-18.63,5.45-35.95,16-51.41,13.46-19.74,31.26-33.86,54.4-40.74a100.19,100.19,0,0,1,30.65-4,17.79,17.79,0,0,1,17.71,18c.09,5.79-1.49,10.87-5.83,14.89A17.69,17.69,0,0,1,326,96.88a61.63,61.63,0,0,0-26.07,5.33c-15.9,7.37-27.11,19.14-33.12,35.7-.11.3-.22.6-.31.9A.83.83,0,0,0,266.49,139.1Z" transform="translate(-0.15 -0.14)"/></svg>